<svg width="160" height="160" viewBox="0 0 160 160" fill="none" xmlns="http://www.w3.org/2000/svg">
<rect width="160" height="160" rx="80" fill="#FCEEE7"/>
<path d="M93.3333 73.3333H66.6667C64.8333 73.3333 63.3333 74.8333 63.3333 76.6667C63.3333 78.5 64.8333 80 66.6667 80H93.3333C95.1667 80 96.6667 78.5 96.6667 76.6667C96.6667 74.8333 95.1667 73.3333 93.3333 73.3333ZM103.333 50H100V46.6667C100 44.8333 98.5 43.3333 96.6667 43.3333C94.8333 43.3333 93.3333 44.8333 93.3333 46.6667V50H66.6667V46.6667C66.6667 44.8333 65.1667 43.3333 63.3333 43.3333C61.5 43.3333 60 44.8333 60 46.6667V50H56.6667C54.8986 50 53.2029 50.7024 51.9526 51.9526C50.7024 53.2029 50 54.8986 50 56.6667V103.333C50 105.101 50.7024 106.797 51.9526 108.047C53.2029 109.298 54.8986 110 56.6667 110H103.333C107 110 110 107 110 103.333V56.6667C110 53 107 50 103.333 50ZM100 103.333H60C58.1667 103.333 56.6667 101.833 56.6667 100V66.6667H103.333V100C103.333 101.833 101.833 103.333 100 103.333ZM83.3333 86.6667H66.6667C64.8333 86.6667 63.3333 88.1667 63.3333 90C63.3333 91.8333 64.8333 93.3333 66.6667 93.3333H83.3333C85.1667 93.3333 86.6667 91.8333 86.6667 90C86.6667 88.1667 85.1667 86.6667 83.3333 86.6667Z" fill="#E0580C"/>
</svg>
