<svg width="52" height="52" viewBox="0 0 52 52" fill="none" xmlns="http://www.w3.org/2000/svg">
<rect width="52" height="52" rx="26" fill="#1E1E1E" fill-opacity="0.6"/>
<path d="M23 24C24.1046 24 25 23.1046 25 22C25 20.8954 24.1046 20 23 20C21.8954 20 21 20.8954 21 22C21 23.1046 21.8954 24 23 24Z" stroke="#FEFEFE" stroke-width="1.5" stroke-linecap="round" stroke-linejoin="round"/>
<path d="M27 16H23C18 16 16 18 16 23V29C16 34 18 36 23 36H29C34 36 36 34 36 29V24" stroke="#FEFEFE" stroke-width="1.5" stroke-linecap="round" stroke-linejoin="round"/>
<path d="M33.1389 16.59L29.5089 20.22C29.3689 20.36 29.2289 20.63 29.2089 20.83L29.0089 22.22C28.9389 22.72 29.2889 23.07 29.7889 23L31.1789 22.8C31.3689 22.77 31.6489 22.64 31.7889 22.5L35.4189 18.87C36.0489 18.24 36.3389 17.52 35.4189 16.6C34.4889 15.66 33.7689 15.96 33.1389 16.59Z" stroke="#FEFEFE" stroke-width="1.5" stroke-miterlimit="10" stroke-linecap="round" stroke-linejoin="round"/>
<path d="M32.6211 17.11C32.9311 18.21 33.7911 19.07 34.8911 19.38" stroke="#FEFEFE" stroke-width="1.5" stroke-miterlimit="10" stroke-linecap="round" stroke-linejoin="round"/>
<path d="M16.6719 32.9501L21.6019 29.6401C22.3919 29.1101 23.5319 29.1701 24.2419 29.7801L24.5719 30.0701C25.3519 30.7401 26.6119 30.7401 27.3919 30.0701L31.5519 26.5001C32.3319 25.8301 33.5919 25.8301 34.3719 26.5001L36.0019 27.9001" stroke="#FEFEFE" stroke-width="1.5" stroke-linecap="round" stroke-linejoin="round"/>
</svg>
