<svg width="110" height="110" viewBox="0 0 110 110" fill="none" xmlns="http://www.w3.org/2000/svg">
<path fill-rule="evenodd" clip-rule="evenodd" d="M42.8333 48.6667C56.2723 48.6667 67.1667 37.7723 67.1667 24.3333C67.1667 10.8944 56.2723 0 42.8333 0C29.3944 0 18.5 10.8944 18.5 24.3333C18.5 37.7723 29.3944 48.6667 42.8333 48.6667ZM42.8333 109.5C66.3514 109.5 85.4166 98.6056 85.4166 85.1667C85.4166 71.7277 66.3514 60.8333 42.8333 60.8333C19.3152 60.8333 0.25 71.7277 0.25 85.1667C0.25 98.6056 19.3152 109.5 42.8333 109.5ZM66.932 47.5441C72.7276 41.528 76.2916 33.3471 76.2916 24.3338C76.2916 20.0475 75.4856 15.9495 74.0169 12.183C83.7402 12.5852 91.4996 20.595 91.4996 30.4172C91.4996 40.4964 83.3288 48.6672 73.2496 48.6672C71.0287 48.6672 68.9006 48.2705 66.932 47.5441ZM94.5411 85.1662C94.5411 88.444 93.8127 91.6117 92.4548 94.6052C102.836 91.3874 109.749 85.6388 109.749 79.0829C109.749 69.9202 96.2445 62.3346 78.6442 61.0309C88.4424 67.1194 94.5411 75.682 94.5411 85.1662Z" fill="#484848" fill-opacity="0.25"/>
</svg>
