<svg width="64" height="64" viewBox="0 0 64 64" fill="none" xmlns="http://www.w3.org/2000/svg">
<g filter="url(#filter0_b_903_18969)">
<rect width="64" height="64" rx="32" fill="#EBEBEB"/>
<path d="M35.9774 21.9709L35.1118 22.4716C35.2906 22.7806 35.6205 22.9709 35.9774 22.9709V21.9709ZM18.386 32.3162C18.5606 32.8401 19.1269 33.1233 19.6509 32.9487C20.1748 32.774 20.458 32.2077 20.2833 31.6838L18.386 32.3162ZM43.1069 31.5528C42.8599 32.0467 43.0601 32.6474 43.5541 32.8944C44.0481 33.1414 44.6487 32.9412 44.8957 32.4472L43.1069 31.5528ZM36.0861 36.2794C36.4846 36.6618 37.1176 36.6487 37.5 36.2502C37.8824 35.8517 37.8694 35.2187 37.4709 34.8363L36.0861 36.2794ZM31.334 30.3335L32.0264 29.6119C31.6395 29.2406 31.0286 29.2406 30.6417 29.6119L31.334 30.3335ZM25.1972 34.8363C24.7987 35.2187 24.7857 35.8517 25.1681 36.2502C25.5504 36.6487 26.1835 36.6618 26.582 36.2794L25.1972 34.8363ZM30.334 46.3742C30.334 46.9265 30.7817 47.3742 31.334 47.3742C31.8863 47.3742 32.334 46.9265 32.334 46.3742L30.334 46.3742ZM27.9431 18.3333C31.0048 18.3333 33.6795 19.9956 35.1118 22.4716L36.843 21.4702C35.0679 18.4015 31.7476 16.3333 27.9431 16.3333V18.3333ZM19.668 26.6085C19.668 22.4894 23.406 18.3333 27.9431 18.3333V16.3333C22.2352 16.3333 17.668 21.4523 17.668 26.6085H19.668ZM20.2833 31.6838C19.6743 29.8567 19.668 28.0091 19.668 26.6085H17.668C17.668 27.9908 17.6616 30.1433 18.386 32.3162L20.2833 31.6838ZM43.668 28C43.668 29.3585 43.6534 30.4598 43.1069 31.5528L44.8957 32.4472C45.6826 30.8735 45.668 29.3081 45.668 28H43.668ZM37.2183 22.9709C38.9145 22.9709 40.5587 23.5691 41.7644 24.5205C42.9712 25.4727 43.668 26.7137 43.668 28H45.668C45.668 25.953 44.5608 24.1793 43.0033 22.9504C41.4446 21.7205 39.3639 20.9709 37.2183 20.9709V22.9709ZM35.9774 22.9709H37.2183V20.9709H35.9774V22.9709ZM37.4709 34.8363L32.0264 29.6119L30.6417 31.055L36.0861 36.2794L37.4709 34.8363ZM30.6417 29.6119L25.1972 34.8363L26.582 36.2794L32.0264 31.055L30.6417 29.6119ZM30.334 30.3334L30.334 46.3742L32.334 46.3742L32.334 30.3335L30.334 30.3334Z" fill="#A4A4A4"/>
</g>
<defs>
<filter id="filter0_b_903_18969" x="-60" y="-60" width="184" height="184" filterUnits="userSpaceOnUse" color-interpolation-filters="sRGB">
<feFlood flood-opacity="0" result="BackgroundImageFix"/>
<feGaussianBlur in="BackgroundImageFix" stdDeviation="30"/>
<feComposite in2="SourceAlpha" operator="in" result="effect1_backgroundBlur_903_18969"/>
<feBlend mode="normal" in="SourceGraphic" in2="effect1_backgroundBlur_903_18969" result="shape"/>
</filter>
</defs>
</svg>
