<svg width="56" height="56" viewBox="0 0 56 56" fill="none" xmlns="http://www.w3.org/2000/svg">
<rect x="0.5" y="0.5" width="55" height="55" rx="7.5" stroke="#A4A4A4"/>
<path d="M18 24V37.3333C18 38.0406 18.2634 38.7189 18.7322 39.219C19.2011 39.719 19.837 40 20.5 40H35.5C36.163 40 36.7989 39.719 37.2678 39.219C37.7366 38.7189 38 38.0406 38 37.3333V24M18 24V21.3333C18 20.6261 18.2634 19.9478 18.7322 19.4477C19.2011 18.9476 19.837 18.6667 20.5 18.6667H23M18 24H38M38 24V21.3333C38 20.6261 37.7366 19.9478 37.2678 19.4477C36.7989 18.9476 36.163 18.6667 35.5 18.6667H33M23 18.6667H33M23 18.6667V16M33 18.6667V16" stroke="#3C3C3C" stroke-width="1.5" stroke-linecap="round" stroke-linejoin="round"/>
</svg>
