<svg width="24" height="24" viewBox="0 0 24 24" fill="none" xmlns="http://www.w3.org/2000/svg">
<path d="M21 5.9799C17.67 5.6499 14.32 5.4799 10.98 5.4799C9 5.4799 7.02 5.5799 5.04 5.7799L3 5.9799" stroke="#292D32" stroke-width="1.5" stroke-linecap="round" stroke-linejoin="round"/>
<path d="M8.5 4.96991L8.72 3.65991C8.88 2.70991 9 1.99991 10.69 1.99991H13.31C15 1.99991 15.13 2.74991 15.28 3.66991L15.5 4.96991" stroke="#292D32" stroke-width="1.5" stroke-linecap="round" stroke-linejoin="round"/>
<path d="M18.8484 9.13992L18.1984 19.2099C18.0884 20.7799 17.9984 21.9999 15.2084 21.9999H8.78844C5.99844 21.9999 5.90844 20.7799 5.79844 19.2099L5.14844 9.13992" stroke="#292D32" stroke-width="1.5" stroke-linecap="round" stroke-linejoin="round"/>
<path d="M10.3281 16.4999H13.6581" stroke="#292D32" stroke-width="1.5" stroke-linecap="round" stroke-linejoin="round"/>
<path d="M9.5 12.4999H14.5" stroke="#292D32" stroke-width="1.5" stroke-linecap="round" stroke-linejoin="round"/>
</svg>
